<svg xmlns="http://www.w3.org/2000/svg" width="194" height="92" viewBox="0 0 194 92" fill="none"><g clip-path="url(#clip0_17482_13325)"><path d="M5.51976 16.326C4.72093 23.3228 3.84551 30.9287 6.96108 37.5106C9.9172 43.7575 15.5871 47.3647 22.4201 47.9519C37.654 49.2592 51.9563 40.3679 63.1398 30.9115C69.2177 25.7715 74.7689 20.0459 80.3247 14.3564C76.007 14.6695 71.6892 14.9827 67.3715 15.2942C64.6655 21.5536 61.9189 28.2029 62.7505 35.181C63.3977 40.6075 66.5446 45.7944 71.5501 48.1836C79.0709 51.772 88.8116 48.8286 95.4601 44.6452C101.183 41.0427 106.12 36.1736 110.503 31.0524C115.312 25.4349 119.258 19.177 122.47 12.523C117.991 13.1415 113.513 13.7599 109.034 14.3783C107.106 20.0788 105.226 26.0502 106.014 32.1499C106.661 37.1568 109.733 41.5781 114.085 44.0644C120.156 47.5323 128.689 45.7146 134.215 42.0212C139.15 38.724 142.922 33.8455 146.23 28.9748C149.824 23.686 152.81 17.9527 155.125 11.9923C155.511 10.9981 154.584 10.1621 153.812 9.80666C152.569 9.2352 150.701 9.27278 149.406 9.47631C146.464 9.93817 143.136 11.056 141.69 13.8476C139.055 18.9343 136.314 24.8039 138.16 30.6469C140.125 36.8624 146.685 39.3894 152.716 39.369C165.941 39.3236 178.511 29.8875 185.844 19.3962C189.391 14.3204 192.04 8.56667 193.468 2.5374C194.539 -1.98103 181.053 0.0871792 180.032 4.39268C179.512 6.58771 178.847 8.74203 178.014 10.8384C177.139 13.0413 176.298 14.7588 175.21 16.5812C174.054 18.5163 172.76 20.3669 171.341 22.1173C170.629 22.994 169.876 23.8254 169.119 24.6614C169.013 24.7789 168.467 25.3347 169.068 24.7288C168.91 24.8884 168.749 25.0466 168.588 25.2031C168.105 25.6744 167.611 26.1363 167.107 26.5856C166.324 27.2854 165.516 27.9587 164.686 28.6021C164.211 28.9701 163.726 29.3239 163.241 29.6777C163.143 29.7498 162.511 30.1756 163.119 29.7685C163.817 29.3004 162.75 30.0034 162.611 30.0926C161.644 30.7095 160.568 31.4939 159.482 31.8806C161.178 31.2763 158.72 31.9824 158.656 32.1702C158.689 32.0763 160.324 31.7037 158.964 32.0638C158.767 32.1154 158.108 32.1812 157.978 32.3205C158.303 31.9698 159.252 32.0826 158.295 32.225C157.401 32.3597 158.112 31.9667 158.537 32.2297C158.451 32.1765 157.99 32.225 157.884 32.2344C157.085 32.308 158.863 32.3972 158.068 32.2657C157.564 32.1812 157.06 32.1186 156.56 32.0058C156.766 32.0528 157.388 32.3096 156.526 31.9792C156.188 31.8493 155.85 31.724 155.522 31.5722C154.62 31.1573 154.403 31.021 153.566 30.2085C152.789 29.4538 152.255 28.6679 151.865 27.6643C149.775 22.255 152.669 16.7424 155.128 11.9954C150.649 12.6138 146.171 13.2323 141.692 13.8507C138.365 22.4116 133.543 30.6563 127.172 37.3807C126.783 37.7909 127.172 37.3775 127.241 37.3102C127.016 37.5263 126.792 37.7408 126.561 37.949C126.216 38.259 125.854 38.5486 125.496 38.8445C124.562 39.6211 125.578 38.8571 125.612 38.796C125.528 38.9385 125.164 39.0528 125.029 39.1498C124.321 39.6618 126.172 38.7318 125.346 39.0168C124.455 39.3252 126.753 38.6363 125.836 38.8774C124.929 39.1154 127.224 38.6582 126.345 38.7757C125.625 38.8712 127.08 38.724 127.038 38.7256C125.986 38.7772 128.221 38.7443 126.774 38.6786C126.261 38.6551 126.955 38.7569 127.047 38.785C126.799 38.7083 126.552 38.6222 126.309 38.5267C125.881 38.3576 125.47 38.1541 125.065 37.9349C124.485 37.6233 125.47 38.2355 124.927 37.8519C124.763 37.7361 124.601 37.6186 124.441 37.495C124.066 37.2053 123.71 36.8906 123.369 36.5618C122.631 35.8479 121.948 35.0463 121.393 34.1805C120.513 32.8074 119.842 30.8253 119.565 29.0656C118.682 23.4371 120.688 17.7836 122.465 12.5246C122.808 11.5116 121.965 10.7132 121.152 10.339C119.909 9.76752 118.041 9.80509 116.747 10.0086C113.877 10.458 110.386 11.5727 109.031 14.3799C106.753 19.0956 103.814 23.7737 100.508 28.0354C96.9061 32.6775 93.9906 35.8182 89.5479 39.4442C89.0461 39.8528 88.5271 40.2395 88.0143 40.6341C87.8299 40.775 87.1092 41.276 88.0518 40.6325C87.783 40.8157 87.5078 40.9926 87.2327 41.1664C86.6824 41.5124 86.1165 41.824 85.5522 42.1465C84.3923 42.8119 85.7195 41.9962 85.7867 42.0494C85.7554 42.0259 84.5454 42.5723 84.472 42.6021C83.4355 43.0232 84.88 42.3813 84.9019 42.4612C84.9019 42.4612 83.9389 42.7336 84.0061 42.6976C84.1031 42.6459 85.7116 42.3265 84.4751 42.5755C83.5153 42.768 84.7127 42.6647 84.8112 42.5661C84.7518 42.6271 83.8826 42.5457 83.9045 42.5598C83.9514 42.5864 85.2286 42.7884 84.0405 42.5316C83.7419 42.4674 83.4324 42.4283 83.1385 42.3437C83.9952 42.5942 82.779 42.1527 82.7149 42.1261C82.471 42.0212 82.2396 41.8975 81.9989 41.7848C81.9082 41.7425 81.3408 41.3997 81.8613 41.7331C81.4236 41.4529 81.0109 41.1163 80.6232 40.7718C79.7869 40.0313 79.0412 39.1655 78.43 38.2277C77.4201 36.6777 76.626 34.2431 76.3071 32.1734C75.3129 25.7167 78.3018 19.2177 80.7983 13.4405C81.2079 12.4933 80.2387 11.557 79.4852 11.2549C78.355 10.8008 77.1216 10.7758 75.9257 10.8619C72.8851 11.0811 69.9884 12.1833 67.8452 14.3783C67.3199 14.9169 66.7947 15.4539 66.2679 15.9925C66.1459 16.1162 65.4018 16.8755 65.9255 16.3432C65.691 16.5827 65.455 16.8207 65.2205 17.0587C64.1606 18.1327 63.096 19.202 62.0236 20.2636C59.8788 22.3834 57.6997 24.4704 55.4564 26.4885C53.2241 28.4957 50.9308 30.4355 48.5499 32.2657C47.3634 33.1769 46.1581 34.0615 44.9263 34.9101C45.8908 34.2447 44.4214 35.2342 44.0915 35.4471C43.3943 35.898 42.6893 36.3364 41.9764 36.7638C40.6899 37.5341 39.3752 38.2465 38.048 38.9447C37.6306 39.1639 37.0913 39.1827 38.3716 38.7944C38.1043 38.8759 37.8119 39.0543 37.5509 39.1702C36.8568 39.4786 36.1549 39.7683 35.4452 40.036C35.2935 40.0939 33.8538 40.6012 35.0325 40.1988C36.0642 39.8465 35.0856 40.1738 34.823 40.2521C34.1664 40.4493 33.5036 40.6153 32.8376 40.7797C32.3218 40.9065 31.7668 40.7734 33.3269 40.6842C33.0409 40.6998 32.7251 40.7891 32.4375 40.8313C32.1498 40.8736 31.8434 40.9018 31.548 40.9488C30.1426 41.1695 32.7751 40.9378 31.4714 40.9629C31.1775 40.9691 30.8851 40.9801 30.5928 40.9785C30.535 40.9785 29.0983 40.9785 30.0347 40.9863C30.9477 40.9942 29.5751 40.9284 29.4923 40.9174C29.2093 40.8783 28.9264 40.8329 28.6466 40.7797C28.3667 40.7264 28.0916 40.656 27.8118 40.5996C28.6825 40.775 28.0072 40.6591 27.8055 40.5871C27.1349 40.3444 26.4752 40.0924 25.8374 39.7698C24.1725 38.9244 22.109 36.9642 20.946 34.9023C17.4255 28.6663 18.1696 21.2843 18.9466 14.4707C19.2702 11.6322 15.1228 11.6572 13.2282 11.9547C11.4711 12.2303 9.6405 12.714 8.11789 13.6581C7.20807 14.2218 5.64638 15.1439 5.51194 16.326H5.51976Z" fill="#6497F6"></path><path d="M0.00332579 69.8351C0.242504 74.1703 3.04073 78.075 6.60652 80.4016C11.8043 83.7927 17.9995 84.2155 24.0196 83.4843C30.6197 82.6827 36.9649 80.209 42.8772 77.25C47.5998 74.8858 52.1332 72.0395 56.304 68.7971C60.9859 65.1554 65.2896 61.0112 69.0508 56.4207C64.7659 56.8528 60.4794 57.2849 56.1945 57.7171C52.8539 64.4696 58.713 72.1194 65.263 73.8494C76.1261 76.7176 87.7238 71.4806 96.2733 65.0474C98.2352 63.571 100.139 62.0179 102.095 60.5336C103.036 59.8197 103.99 59.1199 104.965 58.4545C105.243 58.265 105.526 58.0803 105.806 57.894C106.222 57.6153 106.319 57.5777 105.836 57.8627C106.417 57.5198 107.003 57.1879 107.599 56.87C104.036 56.7745 100.474 56.6775 96.9095 56.582C95.8872 63.6164 94.7288 71.1737 96.8861 78.1142C98.6416 83.7614 102.787 88.8466 108.429 90.8835C116.363 93.7471 125.777 90.7113 132.475 86.2038C138.183 82.3633 142.549 76.7521 147.031 71.6262C152.743 65.0943 158.456 58.5609 164.169 52.0291C159.865 52.7133 155.561 53.399 151.256 54.0832C151.445 58.2791 154.63 61.4699 158.263 63.131C163.567 65.5593 170.297 64.4196 175.507 62.3388C180.35 60.4053 184.724 57.2583 187.705 52.9356C190.455 48.9479 192.217 44.514 193.888 39.9972C194.837 37.4327 189.464 37.8538 188.322 38.0526C186.568 38.3564 184.758 38.8308 183.2 39.7091C182.205 40.2696 180.939 40.9616 180.519 42.0983C179.254 45.5176 177.98 48.9636 176.162 52.1356C175.363 53.5305 174.399 54.8316 173.306 56.0105C172.995 56.3456 172.673 56.6681 172.341 56.9828C172.965 56.3925 171.907 57.3335 171.869 57.3617C171.571 57.5949 171.242 57.7938 170.95 58.0333C170.605 58.265 170.705 58.2102 171.252 57.8705C171.058 57.9863 170.861 58.0975 170.662 58.204C169.679 58.7363 170.279 58.157 170.786 58.1883C170.58 58.276 170.372 58.3558 170.161 58.431C169.648 58.6157 169.882 58.539 170.867 58.1993C169.638 58.5844 172.033 57.9957 171.161 58.1351C170.678 58.2055 170.869 58.1883 171.732 58.085C171.18 58.0944 171.134 58.1053 171.594 58.1179C172.405 58.0678 171.292 58.0756 171.102 58.0552C169.928 57.9269 171.832 58.3511 170.716 57.955C170.331 57.8188 169.946 57.6983 169.57 57.5417C169.113 57.3523 169.402 57.4885 169.146 57.3429C166.543 55.868 164.872 53.4867 164.738 50.465C164.655 48.6207 159.974 49.1295 159.116 49.2783C156.629 49.7088 153.554 50.5417 151.825 52.5191C147.254 57.7452 142.685 62.9713 138.114 68.1974C133.968 72.9382 129.999 77.967 125.426 82.3085C125.204 82.5199 124.981 82.7281 124.754 82.9332C125.306 82.4306 124.735 82.9473 124.639 83.0287C124.116 83.4624 123.593 83.8914 123.047 84.2985C122.502 84.7055 121.976 85.1345 121.399 85.4382C122.833 84.6805 120.458 85.9721 120.369 85.9298C120.463 85.9737 121.795 85.2065 120.727 85.7404C120.24 85.9846 119.66 85.825 121.287 85.5744C121.146 85.5964 120.627 85.6997 120.468 85.7889C121.426 85.2535 121.765 85.5384 121.034 85.6308C122.711 85.4194 121.646 85.5353 121.223 85.5776C120.435 85.6543 122.183 85.706 121.389 85.5807C121.043 85.5259 120.69 85.5087 120.344 85.4555C121.002 85.5572 120.516 85.4899 120.138 85.3803C115.817 84.1294 112.351 79.971 110.704 75.498C108.221 68.7595 109.272 61.3947 110.277 54.4824C110.536 52.6945 108.531 52.4283 107.129 52.3892C104.582 52.3172 101.835 52.9935 99.589 54.1944C94.9461 56.6728 90.9145 59.9544 86.7624 63.1498C85.8245 63.8731 84.8772 64.5855 83.9079 65.2666C83.3608 65.6517 82.8058 66.0228 82.2478 66.3907C83.0857 65.8396 82.1086 66.4737 81.7944 66.6521C81.2129 66.9841 80.6157 67.2847 80.0217 67.5931C78.546 68.3618 81.2864 67.1297 79.7356 67.723C79.4277 67.8499 79.1181 67.9704 78.807 68.0847C78.0645 68.3446 78.1833 68.3102 79.1635 67.9814C78.8492 68.0753 78.5319 68.163 78.213 68.2428C77.5924 68.3884 77.5768 68.3947 78.1645 68.2601C78.7539 68.1364 78.7367 68.1301 78.113 68.2413C77.3939 68.3352 77.4705 68.3305 78.3459 68.2303C78.0238 68.2522 77.7018 68.2648 77.3798 68.2679C78.0473 68.3008 78.0551 68.2961 77.4032 68.2554C76.9218 68.1927 76.4324 68.1724 75.9588 68.0628C76.5997 68.2115 75.2272 67.7982 75.1006 67.7497C73.9156 67.3019 72.3993 66.2122 71.2253 64.8986C68.9241 62.3232 68.0284 58.7206 69.5619 55.6191C69.9965 54.7408 69.0257 54.0096 68.3442 53.792C67.2139 53.4288 65.9993 53.4726 64.8362 53.59C62.1896 53.8562 58.4894 54.7376 56.7057 56.9154C55.3348 58.5891 53.8997 60.2096 52.3896 61.7595C51.6627 62.5048 50.9201 63.2359 50.1619 63.9499C49.929 64.169 49.693 64.3867 49.4585 64.6043C49.4616 64.6012 48.8801 65.1335 49.2021 64.8438C49.5241 64.5542 48.9348 65.0787 48.9395 65.0756C48.6378 65.3386 48.3329 65.5985 48.0265 65.8568C46.3726 67.2502 44.6577 68.5716 42.8881 69.8132C42.0361 70.4112 41.1717 70.9905 40.2947 71.5526C40.093 71.6825 39.8882 71.8094 39.6866 71.9393C39.7507 71.8986 40.4823 71.4649 39.9179 71.7937C39.3536 72.1225 38.8174 72.4481 38.2593 72.766C37.3542 73.2811 36.4381 73.7758 35.5127 74.2518C35.014 74.507 34.5122 74.7575 34.0073 75.0017C33.7915 75.1066 33.5742 75.2084 33.3569 75.3133C32.6769 75.642 33.1225 75.4432 33.5445 75.2397C32.5159 75.7407 31.4232 76.1477 30.3508 76.5423C30.0178 76.6644 29.6817 76.7771 29.3472 76.8977C28.5562 77.1826 29.8459 76.7192 29.849 76.7317C29.8646 76.785 27.8011 77.2562 27.8043 77.2875C27.8043 77.2656 29.1534 77.0402 28.3326 77.1779C28.0731 77.2218 27.8152 77.275 27.5573 77.3188C27.2993 77.3611 27.0351 77.3846 26.7788 77.4347C25.8471 77.6179 27.8449 77.4018 26.8991 77.4284C26.3801 77.4425 25.8549 77.4644 25.3359 77.4895C24.6887 77.5208 25.3984 77.4895 25.5078 77.4989C25.0733 77.4629 24.6418 77.4347 24.2088 77.3815C23.9493 77.3502 23.6898 77.311 23.4303 77.2719C23.5116 77.2844 23.9899 77.4049 23.5053 77.2938C23.0363 77.1873 22.572 77.0527 22.1171 76.8993C21.2745 76.6174 20.4413 76.2589 19.9426 75.9708C16.3065 73.865 13.7209 70.513 13.4848 66.2263C13.4333 65.2994 11.5511 64.9785 11.018 64.9112C9.44383 64.7155 7.55229 64.9941 6.04843 65.4263C4.16002 65.968 -0.137367 67.233 0.0064523 69.8429H0.00332579V69.8351Z" fill="#6497F6"></path><path d="M16.6875 35.877C17.0517 36.165 17.6692 36.4124 17.7271 36.7521C17.8381 37.4175 17.6927 38.18 16.6875 38.1487C16.6875 37.3925 16.6875 36.6347 16.6875 35.8785V35.877Z" fill="white"></path><path d="M76.1383 20.7795C75.0299 20.4367 73.9231 20.0938 72.8242 19.754C73.2869 18.0146 73.2087 17.9191 71.4157 17.7626C70.695 18.4107 70.187 18.8695 69.6789 19.3266L69.3678 19.0041C69.4929 18.7943 69.6164 18.5861 69.7461 18.37C69.3334 18.2855 68.9035 18.1994 68.4752 18.1117C68.4345 17.9676 68.3955 17.822 68.3548 17.678C68.73 17.5434 69.0989 17.3821 69.4835 17.2835C69.9978 17.152 70.5528 17.1426 71.0389 16.95C71.622 16.7198 72.1488 16.3519 72.7007 16.0435C72.8429 16.1546 72.9852 16.2658 73.1259 16.377V15.3984C72.1879 15.5973 71.25 15.7961 70.0635 16.0482C69.9306 15.948 69.6554 15.7429 69.4163 15.5628C68.2939 16.8357 66.8682 17.8972 65.2549 18.6878C65.5644 19.2765 65.8864 19.8887 66.2647 20.6057C67.1746 20.432 68.4877 20.1815 69.8102 19.9294C70.3589 21.6876 70.8388 21.9021 73.5026 21.4246C73.2447 21.8144 73.0399 22.1244 72.8351 22.4328C72.8883 22.5049 72.9414 22.5769 72.9946 22.6489C74.0654 22.187 75.1362 21.7252 76.207 21.2633C76.1852 21.1021 76.1633 20.9408 76.1398 20.7811L76.1383 20.7795Z" fill="white"></path><path d="M76.4915 37.1464C75.3676 37.5175 74.5484 37.7868 73.7371 38.0545C73.673 37.9527 73.6105 37.851 73.5464 37.7492C73.9481 37.1292 74.3514 36.5092 74.872 35.7061C73.8903 35.7061 73.1899 35.8203 73.0868 36.8537C73.0117 37.6146 72.4865 38.5994 74.0044 38.6604C74.514 38.6808 75.0049 39.163 75.6411 39.509C75.9225 38.817 76.2008 38.1312 76.5525 37.267C76.5322 37.2263 76.5119 37.1871 76.4915 37.1464Z" fill="white"></path><path d="M26.4874 78.3053C24.8569 79.7253 23.1796 79.3872 22.1963 77.3628C23.6986 77.5178 25.2431 77.1687 26.4874 78.3053Z" fill="white"></path><path d="M63.3337 23.04C63.7558 23.5974 64.1825 24.1595 64.6093 24.7231C63.5432 25.5216 62.5818 25.3948 62.7459 24.5634C62.8444 24.0624 63.1133 23.5958 63.3337 23.0416V23.04Z" fill="white"></path><path d="M157.415 51.3688C156.682 51.8463 156.291 52.2267 155.833 52.3379C155.654 52.3817 155.327 51.8291 155.067 51.5472C155.471 51.2482 155.846 50.8787 156.295 50.6877C156.456 50.6188 156.799 50.9789 157.414 51.3672L157.415 51.3688Z" fill="white"></path><path d="M117.013 13.5742C117.14 14.1347 117.268 14.6968 117.394 15.2573C116.946 15.3074 116.497 15.359 116.047 15.4091C116.095 14.8173 116.144 14.2271 116.194 13.6353C116.467 13.6149 116.739 13.5946 117.013 13.5742Z" fill="white"></path><path d="M105.808 31.5376C104.898 31.5814 103.99 31.6252 102.911 31.6769C103.848 30.0815 104.812 30.4495 105.794 30.9739C105.798 31.1618 105.803 31.3513 105.808 31.5391V31.5376Z" fill="white"></path><path d="M168.762 30.9869C168.428 31.5568 168.092 32.1282 167.757 32.6981C167.53 32.5588 167.304 32.421 167.077 32.2816C167.465 31.729 167.851 31.1763 168.239 30.6221C168.414 30.7426 168.589 30.8647 168.762 30.9853V30.9869Z" fill="white"></path></g><defs><clipPath id="clip0_17482_13325"><rect width="194" height="92" fill="white"></rect></clipPath></defs></svg>